<?xml version="1.0" encoding="UTF-8"?>
<svg id="Layer_1" xmlns="http://www.w3.org/2000/svg" version="1.1" viewBox="0 0 1000 124.42">
  <!-- Generator: Adobe Illustrator 30.2.0, SVG Export Plug-In . SVG Version: 2.1.1 Build 105)  -->
  <path d="M94.56,18.12l-5.18,17.95h-1.21c-9.84-23.12-22.43-31.92-36.07-31.92-17.08,0-26.92,9.66-27.96,20.02-3.28,34.51,70.75,23.12,70.75,66.26,0,20.54-18.46,35.03-42.97,35.03-20.53,0-33.3-6.9-46.76-17.08l5.18-19.67h1.21c8.8,17.6,24.85,33.3,47.45,33.3,14.67,0,26.92-9.49,28.3-20.36,4.49-36.75-69.72-25.02-69.72-68.33C17.6,19.33,28.82,1.9,56.6,1.9c13.29,0,27.78,8.28,37.96,16.22Z"/>
  <path d="M183.95,124.42h-17.43v-24.16c-4.49,15.18-13.98,25.19-30.54,25.19-14.15,0-27.96-6.73-30.2-19.15-2.93-17.6,7.59-27.95,20.88-33.48-4.49-10.01.86-31.41,23.99-31.41,14.32,0,29.51,7.59,29.51,28.82v42.8c0,6.04,1.21,8.63,3.8,10.18v1.21ZM166.52,97.15v-26.57c-.86-.35-5-1.55-10.35-1.55-18.81,0-44.35,9.32-36.93,39.69,2.24,9.32,12.25,15.01,20.88,14.5,15.01-.86,22.95-13.63,26.4-26.06ZM128.39,72.13c9.32-3.45,19.67-4.66,27.78-4.66,3.97,0,7.42.69,10.35,1.55v-1.21c0-13.12-5.18-24.68-17.43-24.68-15.53,0-25.88,15.01-20.71,28.99Z"/>
  <path d="M259.02,51.6l-10.53,14.84-1.21-.69c-.35-9.84-5.18-22.61-14.5-21.22-16.91,2.59-19.15,47.11-19.15,61.78v6.73c0,6.04,1.21,8.63,3.8,10.18v1.21h-21.4v-1.21c2.76-1.55,3.97-4.14,3.97-10.18v-58.33c0-6.04-.52-7.76-3.97-8.28v-1.21l16.22-3.8h1.38v46.25c1.73-20.88,6.56-46.25,24.85-46.25,9.32,0,14.67,3.28,20.54,10.18Z"/>
  <path d="M388.61,41.42v1.38c-6.9,6.56-11.73,13.98-17.26,27.09l-15.36,40.21,5.52,14.32h-13.63s-21.23-55.56-22.09-57.81l-14.15,45.56,5.18,12.25h-13.63l-21.4-50.39c-7.25-16.91-10.87-24.33-19.33-31.23v-1.38h26.57v1.38c-4.49,4.66-2.93,9.32,1.04,18.98l20.71,48.66,14.32-45.56c-4.31-10.7-7.42-16.57-14.15-22.09v-1.38h26.57v1.38c-5.18,5.35-2.93,10.87,1.73,23.47l16.22,42.11,12.77-33.82c6.21-16.05,7.77-25.54,0-31.75v-1.38h20.36Z"/>
  <path d="M463.85,124.42h-17.43v-24.16c-4.49,15.18-13.98,25.19-30.54,25.19-14.15,0-27.96-6.73-30.2-19.15-2.93-17.6,7.59-27.95,20.88-33.48-4.49-10.01.86-31.41,23.99-31.41,14.32,0,29.51,7.59,29.51,28.82v42.8c0,6.04,1.21,8.63,3.8,10.18v1.21ZM446.42,97.15v-26.57c-.86-.35-5-1.55-10.35-1.55-18.81,0-44.35,9.32-36.93,39.69,2.24,9.32,12.25,15.01,20.88,14.5,15.01-.86,22.95-13.63,26.4-26.06ZM408.28,72.13c9.32-3.45,19.67-4.66,27.78-4.66,3.97,0,7.42.69,10.35,1.55v-1.21c0-13.12-5.18-24.68-17.43-24.68-15.53,0-25.88,15.01-20.71,28.99Z"/>
  <path d="M603.28,18.12l-5.18,17.95h-1.21c-9.84-23.12-22.43-31.92-36.07-31.92-17.08,0-26.92,9.66-27.96,20.02-3.28,34.51,70.75,23.12,70.75,66.26,0,20.54-18.46,35.03-42.97,35.03-20.54,0-33.3-6.9-46.76-17.08l5.18-19.67h1.21c8.8,17.6,24.85,33.3,47.45,33.3,14.67,0,26.92-9.49,28.3-20.36,4.49-36.75-69.71-25.02-69.71-68.33,0-13.98,11.22-31.41,39-31.41,13.29,0,27.78,8.28,37.96,16.22Z"/>
  <path d="M677.65,94.22c-3.28,16.22-10.53,31.23-28.65,31.23-15.36,0-24.85-10.01-24.85-30.37v-52.29h-10.18v-1.38c14.67,0,15.88-15.36,15.88-23.64h13.63c0,13.29-13.11,23.12-23.47,23.64h38.14v1.38h-20.36v54.87c0,15.01,4.14,26.57,18.81,24.68,11.39-1.55,17.08-15.19,20.19-28.47l.86.34Z"/>
  <path d="M761.52,124.42h-17.6v-41.93c-2.24,19.5-8.11,42.97-30.54,42.97-15.88,0-28.47-10.01-28.47-30.37v-40.38c0-6.04-.52-7.76-3.8-8.28v-1.21l16.22-3.8h1.21v56.25c0,15.01,7.77,27.44,22.61,24.68,19.33-3.8,22.78-39.86,22.78-54.36v-13.29c0-6.04-.52-7.76-3.8-8.28v-1.21l16.22-3.8h1.21v71.61c0,6.04,1.21,8.63,3.97,10.18v1.21Z"/>
  <path d="M859.37,124.42h-17.43v-46.25c-3.28,20.02-12.08,47.28-36.24,47.28-13.98,0-31.23-12.08-31.92-34.17-1.04-42.62,38.65-49.87,57.81-49.87,3.97,0,7.42.69,10.35,1.55V13.29c0-6.04-.52-7.76-3.97-8.28v-1.38L854.36,0h1.21v113.03c0,6.04,1.21,8.63,3.8,10.18v1.21ZM841.94,67.99v-24.16c-.86-.17-4.83-1.55-10.35-1.55-16.74.34-46.76,7.59-44.35,51.6.86,15.01,11.39,31.23,26.23,28.47,19.33-3.8,28.47-39.86,28.47-54.36Z"/>
  <path d="M892.84,123.21v1.21h-21.4v-1.21c2.59-1.55,3.8-4.14,3.8-10.18v-58.33c0-6.04-.52-7.76-3.8-8.28v-1.21l16.22-3.8h1.21v71.61c0,6.04,1.21,8.63,3.97,10.18ZM873.51,19.33c0-4.49,3.62-8.11,8.11-8.11s8.11,3.62,8.11,8.11-3.62,8.11-8.11,8.11-8.11-3.62-8.11-8.11Z"/>
  <path d="M994.82,79.73c0,27.61-23.64,45.73-46.76,45.73s-43.14-14.15-43.14-38.31c0-28.47,23.64-45.73,46.76-45.73s43.14,14.5,43.14,38.31ZM980.33,74.2c-6.04-20.71-22.26-35.38-41.93-29.68-19.67,5.69-25.02,27.26-18.98,48.14,6.04,20.71,22.26,35.55,41.93,29.68,19.67-5.7,25.02-27.27,18.98-48.14Z"/>
</svg>